<svg width="16" height="16" viewBox="0 0 16 16" fill="none" xmlns="http://www.w3.org/2000/svg">
<path d="M15.1164 0H0.883093C0.395706 0 0 0.394915 0 0.883093V15.1164C0 15.6046 0.395706 16 0.883093 16H8.54587V9.80386H6.46091V7.38879H8.54587V5.60785C8.54587 3.54159 9.80755 2.41586 11.6512 2.41586C12.5351 2.41586 13.293 2.48199 13.5141 2.5107V4.67049L12.2353 4.67101C11.2328 4.67101 11.0395 5.1476 11.0395 5.84654V7.388H13.4311L13.1184 9.80281H11.0392V15.9992H15.1161C15.604 15.9992 16 15.6032 16 15.1164V0.882566C15.9997 0.394915 15.6043 0 15.1164 0Z" fill="white"/>
</svg>
