<svg width="145" height="24" viewBox="0 0 145 24" fill="none" xmlns="http://www.w3.org/2000/svg">
<path d="M66.8341 9.17115C64.682 9.17115 63.1554 10.8551 63.1554 13.44V22.922H59.8702V6.23213H63.1161V8.27016C63.5164 7.59468 64.0902 7.03857 64.7778 6.65947C65.4655 6.28037 66.242 6.09207 67.0269 6.1141H68.2072V9.17115H66.8341ZM57.6 14.5771C57.6 9.6 54.059 5.87803 49.2669 5.87803C48.1346 5.88572 47.0151 6.11721 45.9726 6.55919C44.9301 7.00117 43.9854 7.64491 43.1926 8.45338C42.3999 9.26185 41.7748 10.2191 41.3534 11.27C40.932 12.321 40.7225 13.4449 40.737 14.5771C40.737 19.5502 44.5731 23.3115 49.5777 23.3115C50.9757 23.3379 52.3595 23.0278 53.6125 22.4075C54.8656 21.7871 55.9511 20.8746 56.7777 19.7469L54.3934 18C53.8464 18.7634 53.1227 19.383 52.284 19.8058C51.4453 20.2285 50.5168 20.4419 49.5777 20.4275C48.2402 20.4212 46.9493 19.936 45.9388 19.0597C44.9283 18.1835 44.2651 16.9743 44.0695 15.6511H57.6079L57.6 14.5771ZM44.1403 13.0466C44.7266 10.501 46.7607 8.7777 49.2275 8.7777C51.6944 8.7777 53.7246 10.501 54.2754 13.0466H44.1403ZM30.3305 5.87803C29.2326 5.87896 28.1458 6.09744 27.1328 6.52086C26.1198 6.94428 25.2008 7.56424 24.4289 8.34492V0H21.1436V22.922H24.3895V20.8052C25.962 22.396 28.1016 23.2974 30.3384 23.3115C31.4986 23.3361 32.6522 23.1289 33.7313 22.7019C34.8104 22.2749 35.7935 21.6368 36.6228 20.8249C37.4521 20.0131 38.1109 19.0438 38.5607 17.974C39.0106 16.9042 39.2423 15.7553 39.2423 14.5948C39.2423 13.4342 39.0106 12.2854 38.5607 11.2155C38.1109 10.1457 37.4521 9.17644 36.6228 8.36458C35.7935 7.55271 34.8104 6.91458 33.7313 6.4876C32.6522 6.06062 31.4986 5.85338 30.3384 5.87803H30.3305ZM30.0944 20.3764C28.9493 20.3818 27.8284 20.047 26.8739 19.4144C25.9194 18.7818 25.1743 17.8798 24.7332 16.8231C24.2921 15.7663 24.1749 14.6024 24.3964 13.4789C24.6179 12.3554 25.1681 11.323 25.9773 10.5127C26.7864 9.70246 27.8181 9.15082 28.9413 8.92779C30.0644 8.70477 31.2286 8.82042 32.2859 9.26007C33.3433 9.69972 34.2462 10.4435 34.8801 11.3972C35.5141 12.3508 35.8504 13.4713 35.8466 14.6164C35.8476 15.3717 35.6995 16.1198 35.4107 16.8177C35.1219 17.5156 34.6981 18.1496 34.1636 18.6833C33.6292 19.217 32.9946 19.6399 32.2963 19.9278C31.598 20.2156 30.8497 20.3627 30.0944 20.3607V20.3764ZM9.04525 20.219C12.2164 20.219 14.6793 17.7875 14.6793 14.1443V0H18.0826V22.922H14.7187V20.7541C13.9328 21.5664 12.9902 22.2107 11.9481 22.6483C10.906 23.0858 9.78596 23.3074 8.65574 23.2997C3.76525 23.2997 0 19.7351 0 14.3292V0H3.46623V14.1639C3.46623 17.8269 5.82689 20.219 9.04525 20.219Z" fill="white"/>
<path d="M76.3789 0H92.4589V3.93443H80.7225V9.52131H92.1323V13.322H80.7225V19.0033H92.4589V22.9377H76.3789V0ZM136.867 23.3508C141.797 23.3508 144.574 20.9902 144.574 17.7482C144.574 15.4387 142.93 13.7154 139.487 12.9679L135.848 12.2243C133.735 11.8308 133.07 11.4374 133.07 10.6505C133.07 9.63148 134.089 9.0059 135.966 9.0059C138 9.0059 139.507 9.55279 139.9 11.4334H144.165C143.933 7.89246 141.387 5.55541 136.225 5.55541C131.764 5.55541 128.632 7.39672 128.632 10.9652C128.632 13.4321 130.355 15.0374 134.073 15.8203L138.142 16.7607C139.747 17.0754 140.176 17.5082 140.176 18.1731C140.176 19.2315 138.964 19.8964 137.004 19.8964C134.542 19.8964 133.133 19.3495 132.586 17.4689H128.298C128.923 21.002 131.543 23.3508 136.867 23.3508ZM127.058 22.922H122.443C119.547 22.922 117.942 21.12 117.942 18.8459V9.83607H114.696V5.99606H117.958V1.17639H122.246V5.99606H127.058V9.83607H122.246V17.7482C122.246 18.6492 122.872 19.082 123.852 19.082H127.058V22.922ZM108.566 6.00394V7.53049C107.057 6.25411 105.142 5.55677 103.164 5.56328C101.981 5.53838 100.804 5.75002 99.7032 6.18579C98.6024 6.62156 97.5996 7.27269 96.7537 8.10102C95.9077 8.92935 95.2357 9.91821 94.7768 11.0096C94.318 12.1011 94.0817 13.2731 94.0817 14.4571C94.0817 15.641 94.318 16.813 94.7768 17.9045C95.2357 18.9959 95.9077 19.9848 96.7537 20.8131C97.5996 21.6414 98.6024 22.2925 99.7032 22.7283C100.804 23.1641 101.981 23.3757 103.164 23.3508C105.142 23.3594 107.058 22.6618 108.566 21.3836V22.9141H112.843V5.99606L108.566 6.00394ZM103.519 19.6367C102.493 19.6484 101.487 19.3549 100.628 18.7933C99.7692 18.2318 99.0969 17.4277 98.6964 16.4832C98.2958 15.5387 98.1852 14.4964 98.3784 13.4888C98.5716 12.4812 99.0601 11.5539 99.7816 10.8245C100.503 10.0952 101.425 9.59686 102.431 9.39285C103.436 9.18883 104.48 9.28834 105.428 9.67875C106.377 10.0691 107.188 10.7328 107.759 11.5854C108.33 12.438 108.634 13.4409 108.633 14.4669C108.64 15.1432 108.512 15.814 108.257 16.4405C108.002 17.0671 107.626 17.6369 107.149 18.1169C106.673 18.597 106.106 18.9778 105.481 19.2373C104.857 19.4968 104.187 19.6299 103.511 19.6289L103.519 19.6367Z" fill="#5FB709"/>
</svg>
