<svg width="17" height="16" viewBox="0 0 17 16" fill="none" xmlns="http://www.w3.org/2000/svg">
<path d="M11.9175 0H4.74833C2.31372 0 0.333008 1.98081 0.333008 4.41542V11.5846C0.333008 14.0193 2.31372 16 4.74833 16H11.9175C14.3523 16 16.333 14.0192 16.333 11.5846V4.41542C16.3331 1.98081 14.3523 0 11.9175 0ZM14.9135 11.5846C14.9135 13.2365 13.5695 14.5804 11.9176 14.5804H4.74833C3.09649 14.5805 1.75261 13.2365 1.75261 11.5846V4.41542C1.75261 2.76358 3.09649 1.4196 4.74833 1.4196H11.9175C13.5694 1.4196 14.9134 2.76358 14.9134 4.41542V11.5846H14.9135Z" fill="white"/>
<path d="M8.33276 3.87734C6.05941 3.87734 4.20996 5.72679 4.20996 8.00014C4.20996 10.2734 6.05941 12.1227 8.33276 12.1227C10.6061 12.1227 12.4556 10.2734 12.4556 8.00014C12.4556 5.72679 10.6061 3.87734 8.33276 3.87734ZM8.33276 10.7031C6.84227 10.7031 5.62956 9.49053 5.62956 8.00004C5.62956 6.50947 6.84218 5.29685 8.33276 5.29685C9.82333 5.29685 11.036 6.50947 11.036 8.00004C11.036 9.49053 9.82324 10.7031 8.33276 10.7031Z" fill="white"/>
<path d="M12.6289 2.67383C12.3554 2.67383 12.0867 2.78456 11.8936 2.97857C11.6995 3.17163 11.5879 3.44041 11.5879 3.71487C11.5879 3.98847 11.6996 4.25715 11.8936 4.45116C12.0866 4.64423 12.3554 4.7559 12.6289 4.7559C12.9034 4.7559 13.1712 4.64423 13.3652 4.45116C13.5592 4.25715 13.67 3.98838 13.67 3.71487C13.67 3.44041 13.5592 3.17163 13.3652 2.97857C13.1722 2.78456 12.9034 2.67383 12.6289 2.67383Z" fill="white"/>
</svg>
