<svg width="20" height="24" viewBox="0 0 20 24" fill="none" xmlns="http://www.w3.org/2000/svg">
<path d="M9.99184 24C9.99184 24 0 15.5265 0 9.99184C0 4.48163 4.45714 0 9.99184 0C15.5265 0 19.9837 4.48163 19.9837 9.99184C19.9837 15.5265 9.99184 24 9.99184 24ZM9.99184 2.00816C5.58367 2.00816 1.98367 5.58367 1.98367 10.0163C1.98367 14.4245 9.99184 21.0122 9.99184 21.0122C9.99184 21.0122 18 14.4245 18 10.0163C18 5.58367 14.4 2.00816 9.99184 2.00816ZM9.99184 14.0082C7.78776 14.0082 6 12.2204 6 10.0163C6 7.81225 7.78776 6 9.99184 6C12.1959 6 13.9837 7.78776 13.9837 9.99184C13.9837 12.1959 12.1959 14.0082 9.99184 14.0082ZM9.99184 8.00816C8.8898 8.00816 7.98367 8.91429 7.98367 10.0163C7.98367 11.1184 8.8898 12 9.99184 12C11.0939 12 12 11.0939 12 9.99184C12 8.8898 11.0939 8.00816 9.99184 8.00816Z" fill="black"/>
</svg>
