<svg width="17" height="16" viewBox="0 0 17 16" fill="none" xmlns="http://www.w3.org/2000/svg">
<path d="M11.9175 0H4.74833C2.31372 0 0.333008 1.98081 0.333008 4.41542V11.5846C0.333008 14.0193 2.31372 16 4.74833 16H11.9175C14.3523 16 16.333 14.0192 16.333 11.5846V4.41542C16.3331 1.98081 14.3523 0 11.9175 0ZM14.9135 11.5846C14.9135 13.2365 13.5695 14.5804 11.9176 14.5804H4.74833C3.09649 14.5805 1.75261 13.2365 1.75261 11.5846V4.41542C1.75261 2.76358 3.09649 1.4196 4.74833 1.4196H11.9175C13.5694 1.4196 14.9134 2.76358 14.9134 4.41542V11.5846H14.9135Z" fill="white"/>
</svg>
