<svg width="20" height="21" viewBox="0 0 20 21" fill="none" xmlns="http://www.w3.org/2000/svg">
<path d="M14.4806 0.127197H5.51916C2.4759 0.127197 0 2.59797 0 5.63478V14.5772C0 17.6142 2.4759 20.0848 5.51916 20.0848H14.4806C17.5241 20.0848 20 17.6141 20 14.5772V5.63478C20.0001 2.59797 17.5241 0.127197 14.4806 0.127197ZM18.2256 14.5772C18.2256 16.6378 16.5456 18.3141 14.4807 18.3141H5.51916C3.45435 18.3142 1.7745 16.6378 1.7745 14.5772V5.63478C1.7745 3.57435 3.45435 1.89793 5.51916 1.89793H14.4806C16.5455 1.89793 18.2255 3.57435 18.2255 5.63478V14.5772H18.2256Z" fill="white"/>
<path d="M10.0002 4.96362C7.15849 4.96362 4.84668 7.27054 4.84668 10.1062C4.84668 12.9417 7.15849 15.2485 10.0002 15.2485C12.8419 15.2485 15.1537 12.9417 15.1537 10.1062C15.1537 7.27054 12.8419 4.96362 10.0002 4.96362ZM10.0002 13.4777C8.13707 13.4777 6.62118 11.9652 6.62118 10.1061C6.62118 8.24681 8.13695 6.73424 10.0002 6.73424C11.8634 6.73424 13.3792 8.24681 13.3792 10.1061C13.3792 11.9652 11.8633 13.4777 10.0002 13.4777Z" fill="white"/>
<path d="M15.3697 3.46216C15.0278 3.46216 14.6919 3.60028 14.4505 3.84228C14.2078 4.0831 14.0684 4.41836 14.0684 4.7607C14.0684 5.10198 14.208 5.43712 14.4505 5.67912C14.6918 5.91994 15.0278 6.05924 15.3697 6.05924C15.7127 6.05924 16.0475 5.91994 16.29 5.67912C16.5325 5.43712 16.671 5.10186 16.671 4.7607C16.671 4.41836 16.5325 4.0831 16.29 3.84228C16.0487 3.60028 15.7127 3.46216 15.3697 3.46216Z" fill="white"/>
</svg>
