<svg width="17" height="16" viewBox="0 0 17 16" fill="none" xmlns="http://www.w3.org/2000/svg">
<path d="M11.9165 0H4.74736C2.31275 0 0.332031 1.98081 0.332031 4.41542V11.5846C0.332031 14.0193 2.31275 16 4.74736 16H11.9165C14.3513 16 16.332 14.0192 16.332 11.5846V4.41542C16.3321 1.98081 14.3513 0 11.9165 0ZM14.9125 11.5846C14.9125 13.2365 13.5685 14.5804 11.9166 14.5804H4.74736C3.09551 14.5805 1.75163 13.2365 1.75163 11.5846V4.41542C1.75163 2.76358 3.09551 1.4196 4.74736 1.4196H11.9165C13.5685 1.4196 14.9124 2.76358 14.9124 4.41542V11.5846H14.9125Z" fill="white"/>
<path d="M8.33178 3.87744C6.05844 3.87744 4.20898 5.72689 4.20898 8.00024C4.20898 10.2735 6.05844 12.1228 8.33178 12.1228C10.6051 12.1228 12.4546 10.2735 12.4546 8.00024C12.4546 5.72689 10.6051 3.87744 8.33178 3.87744ZM8.33178 10.7032C6.8413 10.7032 5.62858 9.49062 5.62858 8.00014C5.62858 6.50956 6.8412 5.29694 8.33178 5.29694C9.82236 5.29694 11.035 6.50956 11.035 8.00014C11.035 9.49062 9.82226 10.7032 8.33178 10.7032Z" fill="white"/>
<path d="M12.627 2.67383C12.3535 2.67383 12.0848 2.78456 11.8916 2.97857C11.6975 3.17163 11.5859 3.44041 11.5859 3.71487C11.5859 3.98847 11.6976 4.25715 11.8916 4.45116C12.0847 4.64423 12.3535 4.7559 12.627 4.7559C12.9014 4.7559 13.1693 4.64423 13.3633 4.45116C13.5573 4.25715 13.668 3.98838 13.668 3.71487C13.668 3.44041 13.5573 3.17163 13.3633 2.97857C13.1702 2.78456 12.9014 2.67383 12.627 2.67383Z" fill="white"/>
</svg>
