<svg width="15" height="14" viewBox="0 0 15 14" fill="none" xmlns="http://www.w3.org/2000/svg">
<path d="M6.85585 9.88519C7.09719 9.88495 7.33137 9.80817 7.52044 9.66731C7.70951 9.52644 7.8424 9.32974 7.89757 9.10907C7.95274 8.88841 7.92696 8.65671 7.82441 8.45152C7.72186 8.24634 7.54854 8.07969 7.33255 7.97858C6.75623 7.71659 6.21654 7.38879 5.72571 7.00264C6.47292 6.09069 7.08716 5.08913 7.55215 4.0245C7.83626 4.01516 8.10478 3.9002 8.29864 3.70492C8.4925 3.50963 8.59583 3.25 8.58588 2.98316C8.57594 2.71632 8.45354 2.46412 8.24562 2.28204C8.03769 2.09996 7.76127 2.00291 7.47716 2.01225H5.35613V1.00613C5.35613 0.739285 5.24327 0.483373 5.04238 0.294688C4.84149 0.106002 4.56902 0 4.28491 0C4.0008 0 3.72833 0.106002 3.52744 0.294688C3.32654 0.483373 3.21368 0.739285 3.21368 1.00613V2.01225H1.07123C0.78712 2.01225 0.514649 2.11825 0.313755 2.30694C0.112861 2.49562 0 2.75154 0 3.01838C0 3.28522 0.112861 3.54113 0.313755 3.72982C0.514649 3.9185 0.78712 4.0245 1.07123 4.0245H5.21688C4.94769 4.53634 4.63607 5.0275 4.28491 5.49345C4.08137 5.22682 3.8832 4.95014 3.70109 4.65333C3.55904 4.42185 3.32489 4.25285 3.05017 4.1835C2.77545 4.11416 2.48265 4.15016 2.23619 4.28358C1.98972 4.417 1.80979 4.63691 1.73596 4.89494C1.66213 5.15297 1.70046 5.42797 1.84251 5.65946C2.13394 6.12551 2.45593 6.5741 2.80661 7.00264C2.32798 7.38563 1.80089 7.71173 1.23727 7.97355C1.02127 8.07466 0.847956 8.24131 0.745404 8.44649C0.642853 8.65168 0.617074 8.88338 0.672245 9.10404C0.727417 9.32471 0.860306 9.52141 1.04938 9.66228C1.23845 9.80314 1.47263 9.87992 1.71396 9.88016C1.87963 9.88171 2.04321 9.84546 2.19066 9.77451C2.94423 9.42046 3.64776 8.97938 4.28491 8.46152C4.92252 8.9826 5.62804 9.42549 6.38451 9.77954C6.53035 9.8497 6.692 9.88593 6.85585 9.88519Z" fill="white"/>
<path d="M14.9132 12.5966L14.3775 11.4295L14.3454 11.359L11.6995 5.5537C11.6172 5.37221 11.4798 5.21745 11.3046 5.10867C11.1294 4.99989 10.924 4.94189 10.7139 4.94189C10.5039 4.94189 10.2985 4.99989 10.1233 5.10867C9.94804 5.21745 9.81073 5.37221 9.72841 5.5537L7.05034 11.3892L6.51473 12.5865C6.40251 12.832 6.39871 13.1093 6.50418 13.3574C6.60965 13.6056 6.81575 13.8042 7.07712 13.9096C7.3385 14.015 7.63376 14.0185 7.89793 13.9195C8.16211 13.8204 8.37357 13.6269 8.48579 13.3814L8.75895 12.7827H12.6689L12.9421 13.3814C13.0233 13.5642 13.1601 13.7204 13.3354 13.8305C13.5107 13.9405 13.7167 13.9995 13.9276 14.0001C14.1051 14.0003 14.2799 13.9591 14.4362 13.8802C14.5926 13.8013 14.7256 13.6871 14.8233 13.5479C14.921 13.4088 14.9804 13.249 14.9961 13.0829C15.0118 12.9169 14.9833 12.7497 14.9132 12.5966ZM9.67485 10.7805L10.7139 8.51171L11.753 10.7856L9.67485 10.7805Z" fill="white"/>
</svg>
