<svg width="146" height="24" viewBox="0 0 146 24" fill="none" xmlns="http://www.w3.org/2000/svg">
<path d="M67.713 9.66297C65.5609 9.66297 64.0343 11.3469 64.0343 13.9318V23.4138H60.7491V6.72395H63.995V8.76198C64.3953 8.0865 64.9691 7.53039 65.6567 7.15129C66.3444 6.77219 67.1209 6.5839 67.9058 6.60592H69.0861V9.66297H67.713ZM58.4789 15.0689C58.4789 10.0918 54.9379 6.36985 50.1458 6.36985C49.0135 6.37754 47.894 6.60903 46.8515 7.05101C45.809 7.49299 44.8643 8.13673 44.0715 8.9452C43.2788 9.75367 42.6537 10.7109 42.2323 11.7618C41.8109 12.8128 41.6014 13.9367 41.616 15.0689C41.616 20.042 45.452 23.8033 50.4566 23.8033C51.8546 23.8297 53.2384 23.5197 54.4914 22.8993C55.7445 22.2789 56.83 21.3664 57.6566 20.2387L55.2724 18.4918C54.7253 19.2553 54.0016 19.8749 53.1629 20.2976C52.3243 20.7204 51.3957 20.9337 50.4566 20.9194C49.1191 20.9131 47.8282 20.4278 46.8177 19.5516C45.8072 18.6753 45.144 17.4661 44.9484 16.143H58.4868L58.4789 15.0689ZM45.0192 13.5384C45.6055 10.9928 47.6396 9.26953 50.1064 9.26953C52.5733 9.26953 54.6035 10.9928 55.1543 13.5384H45.0192ZM31.2094 6.36985C30.1115 6.37078 29.0247 6.58926 28.0117 7.01268C26.9987 7.4361 26.0797 8.05606 25.3078 8.83674V0.491821H22.0225V23.4138H25.2684V21.2971C26.8409 22.8878 28.9805 23.7892 31.2173 23.8033C32.3775 23.8279 33.5311 23.6207 34.6102 23.1937C35.6894 22.7667 36.6724 22.1286 37.5017 21.3168C38.331 20.5049 38.9898 19.5356 39.4397 18.4658C39.8895 17.396 40.1212 16.2471 40.1212 15.0866C40.1212 13.926 39.8895 12.7772 39.4397 11.7073C38.9898 10.6375 38.331 9.66826 37.5017 8.8564C36.6724 8.04453 35.6894 7.4064 34.6102 6.97942C33.5311 6.55244 32.3775 6.3452 31.2173 6.36985H31.2094ZM30.9733 20.8682C29.8282 20.8737 28.7073 20.5388 27.7528 19.9062C26.7983 19.2736 26.0532 18.3717 25.6121 17.3149C25.171 16.2582 25.0538 15.0942 25.2753 13.9707C25.4968 12.8472 26.047 11.8148 26.8562 11.0046C27.6654 10.1943 28.697 9.64264 29.8202 9.41961C30.9434 9.19659 32.1075 9.31224 33.1648 9.75189C34.2222 10.1915 35.1251 10.9354 35.7591 11.889C36.393 12.8426 36.7294 13.9631 36.7255 15.1082C36.7265 15.8635 36.5784 16.6116 36.2896 17.3095C36.0008 18.0074 35.577 18.6414 35.0425 19.1751C34.5081 19.7088 33.8735 20.1318 33.1752 20.4196C32.4769 20.7074 31.7286 20.8545 30.9733 20.8525V20.8682ZM9.92415 20.7108C13.0953 20.7108 15.5583 18.2794 15.5583 14.6361V0.491821H18.9615V23.4138H15.5976V21.2459C14.8117 22.0582 13.8691 22.7026 12.827 23.1401C11.7849 23.5777 10.6649 23.7992 9.53465 23.7915C4.64415 23.7915 0.878906 20.2269 0.878906 14.821V0.491821H4.34514V14.6558C4.34514 18.3187 6.70579 20.7108 9.92415 20.7108Z" fill="#262626"/>
<path d="M77.2578 0.491821H93.3378V4.42625H81.6014V10.0131H93.0112V13.8138H81.6014V19.4951H93.3378V23.4295H77.2578V0.491821ZM137.746 23.8426C142.676 23.8426 145.453 21.482 145.453 18.24C145.453 15.9305 143.809 14.2072 140.366 13.4597L136.727 12.7161C134.614 12.3226 133.949 11.9292 133.949 11.1423C133.949 10.1233 134.968 9.49772 136.845 9.49772C138.879 9.49772 140.386 10.0446 140.779 11.9253H145.044C144.812 8.38428 142.266 6.04723 137.104 6.04723C132.643 6.04723 129.511 7.88854 129.511 11.4571C129.511 13.924 131.234 15.5292 134.952 16.3121L139.02 17.2525C140.626 17.5672 141.055 18 141.055 18.6649C141.055 19.7233 139.843 20.3882 137.883 20.3882C135.42 20.3882 134.012 19.8413 133.465 17.9607H129.176C129.802 21.4938 132.422 23.8426 137.746 23.8426ZM127.937 23.4138H123.322C120.426 23.4138 118.821 21.6118 118.821 19.3377V10.3279H115.575V6.48789H118.837V1.66822H123.125V6.48789H127.937V10.3279H123.125V18.24C123.125 19.141 123.751 19.5738 124.731 19.5738H127.937V23.4138ZM109.445 6.49576V8.02231C107.935 6.74593 106.021 6.04859 104.043 6.0551C102.86 6.0302 101.683 6.24184 100.582 6.67761C99.4813 7.11338 98.4785 7.76451 97.6326 8.59284C96.7866 9.42117 96.1146 10.41 95.6557 11.5015C95.1969 12.5929 94.9606 13.7649 94.9606 14.9489C94.9606 16.1328 95.1969 17.3049 95.6557 18.3963C96.1146 19.4877 96.7866 20.4766 97.6326 21.3049C98.4785 22.1332 99.4813 22.7844 100.582 23.2201C101.683 23.6559 102.86 23.8675 104.043 23.8426C106.021 23.8512 107.936 23.1536 109.445 21.8754V23.4059H113.722V6.48789L109.445 6.49576ZM104.397 20.1285C103.372 20.1402 102.365 19.8467 101.507 19.2852C100.648 18.7237 99.9758 17.9195 99.5753 16.975C99.1747 16.0305 99.0641 14.9882 99.2573 13.9806C99.4505 12.9731 99.939 12.0457 100.661 11.3163C101.382 10.587 102.304 10.0887 103.31 9.88467C104.315 9.68065 105.358 9.78017 106.307 10.1706C107.256 10.561 108.067 11.2246 108.638 12.0772C109.209 12.9298 109.513 13.9328 109.512 14.9587C109.518 15.635 109.391 16.3058 109.136 16.9324C108.881 17.5589 108.505 18.1287 108.028 18.6087C107.552 19.0888 106.985 19.4696 106.36 19.7291C105.736 19.9887 105.066 20.1217 104.39 20.1207L104.397 20.1285Z" fill="#5FB709"/>
</svg>
