<svg width="149" height="24" fill="none" xmlns="http://www.w3.org/2000/svg"><path d="M140.717 23.898c5.026 0 7.898-2.462 7.898-5.744 0-2.359-1.641-4.103-5.231-4.923l-3.692-.718c-2.154-.41-2.872-.82-2.872-1.641 0-1.026 1.025-1.641 2.974-1.641 2.051 0 3.59.513 4.103 2.461h4.41c-.205-3.59-2.872-6.05-8.205-6.05-4.616 0-7.795 1.845-7.795 5.538 0 2.564 1.744 4.205 5.538 5.025l4.206.923c1.641.308 2.051.718 2.051 1.436 0 1.128-1.231 1.744-3.282 1.744-2.564 0-4-.513-4.513-2.462h-4.41c.615 3.692 3.282 6.052 8.82 6.052zm-10.154-.41h-4.718c-2.974 0-4.615-1.847-4.615-4.206v-9.23h-3.282V6.153h3.385V1.231h4.41v4.923h4.923v3.897h-4.923v8.103c0 .923.615 1.333 1.641 1.333h3.282v4h-.103zm-18.871-8.719c0-2.974-2.359-5.333-5.231-5.333s-5.231 2.359-5.231 5.333c0 2.975 2.359 5.334 5.231 5.334s5.231-2.36 5.231-5.334zm-14.872 0c0-5.025 4.103-9.128 9.231-9.128 2.051 0 4 .718 5.538 2.051V6.154h4.41v17.333h-4.41V21.95a8.406 8.406 0 0 1-5.538 2.05c-5.128-.102-9.23-4.205-9.23-9.23z" fill="#5FB709"/><path d="M68.717 9.333c-2.256 0-3.794 1.744-3.794 4.41v9.744h-3.385V6.359h3.385V8.41c.82-1.333 2.256-2.256 4-2.256h1.23v3.18h-1.436zm-23.281 4h10.358c-.512-2.564-2.666-4.41-5.23-4.41-2.462 0-4.513 1.846-5.128 4.41zm5.23-7.384c4.923 0 8.513 3.795 8.513 8.923V16H45.23c.513 2.77 2.77 4.923 5.641 4.923 1.95 0 3.693-.82 4.923-2.462l2.462 1.847C56.512 22.564 53.948 24 50.871 24c-5.128 0-9.128-3.898-9.128-8.923.205-5.026 4-9.128 8.923-9.128zM30.974 20.82a5.953 5.953 0 0 0 5.949-5.948c0-3.385-2.667-5.949-5.949-5.949-3.18 0-5.846 2.564-5.846 5.949 0 3.282 2.667 5.948 5.846 5.948zM21.846 0h3.385v8.513c1.538-1.539 3.692-2.564 6.05-2.564 5.026 0 9.026 4 9.026 8.923s-3.897 8.923-9.025 8.923c-2.36 0-4.513-1.026-6.154-2.564v2.153h-3.385V0h.103zM9.436 20.718c3.282 0 5.743-2.462 5.743-6.257V0h3.487v23.487H15.18v-2.256c-1.64 1.64-3.795 2.564-6.256 2.564C3.897 23.795 0 20.102 0 14.564V0h3.487v14.461c.205 3.795 2.667 6.257 5.949 6.257z" fill="#fff"/><path d="M78.564 0h16.512v3.897H82.974v5.847h11.794v3.794H82.975v5.949h12.102v4H78.564V0z" fill="#5FB709"/></svg>