<svg width="24px" height="24px" fill="none" viewBox="0 0 24 24" xmlns="http://www.w3.org/2000/svg"><path d="m20.8333 19-3.6666-3.6667c.9167-1.3333 1.4999-2.9166 1.4999-4.6666 0-4.33334-3.5833-7.9167-7.9167-7.9167-4.33331 0-7.91665 3.58336-7.91665 7.9167 0 4.3333 3.58334 7.9167 7.91665 7.9167 1.75 0 3.3334-.5834 4.6668-1.5001l3.6666 3.6667zm-15.50005-8.25c0-2.99999 2.41667-5.41666 5.41665-5.41666 3 0 5.4167 2.41667 5.4167 5.41666 0 3-2.4167 5.4167-5.4167 5.4167-2.99998 0-5.41665-2.4167-5.41665-5.4167z" fill="#1F1F1F"></path></svg>
