<svg width="25" height="21" viewBox="0 0 25 21" fill="none" xmlns="http://www.w3.org/2000/svg">
<path d="M24.5832 2.4885C23.6937 2.8892 22.7393 3.16095 21.7366 3.28228C22.7604 2.65892 23.5442 1.67019 23.9157 0.495663C22.9552 1.07293 21.8951 1.4921 20.7655 1.71933C19.8609 0.738268 18.5743 0.127197 17.1472 0.127197C14.4093 0.127197 12.1894 2.38412 12.1894 5.16611C12.1894 5.56068 12.2332 5.94604 12.3178 6.31455C8.19818 6.10418 4.54518 4.09753 2.10028 1.04836C1.6729 1.79147 1.42977 2.65735 1.42977 3.58165C1.42977 5.33039 2.30565 6.87339 3.63459 7.77612C2.82212 7.7485 2.05798 7.52127 1.38902 7.14358V7.20652C1.38902 9.64768 3.09849 11.685 5.36519 12.1487C4.94989 12.2623 4.51197 12.3253 4.05892 12.3253C3.73879 12.3253 3.42921 12.2931 3.12566 12.2316C3.75688 14.2352 5.58719 15.6922 7.75576 15.7322C6.05986 17.0833 3.92151 17.8862 1.59894 17.8862C1.19876 17.8862 0.804593 17.8617 0.416504 17.8171C2.61074 19.2496 5.21573 20.0848 8.01551 20.0848C17.1352 20.0848 22.1202 12.4051 22.1202 5.74495L22.1036 5.09245C23.0776 4.38615 23.9202 3.49875 24.5832 2.4885Z" fill="white"/>
</svg>
