<svg width="20" height="21" viewBox="0 0 20 21" fill="none" xmlns="http://www.w3.org/2000/svg">
<g id="world">
<path id="Shape" fill-rule="evenodd" clip-rule="evenodd" d="M10.5251 0.99999L10.5251 0.999987C10.4415 0.989444 10.3578 0.978882 10.2729 0.978882C10.2552 0.978882 10.2378 0.981238 10.2205 0.983588C10.2054 0.985622 10.1904 0.987652 10.1754 0.988148C10.1481 0.987651 10.1211 0.985616 10.094 0.98358C10.0628 0.981232 10.0316 0.978882 10 0.978882C4.48607 0.978882 0 5.45581 0 10.9577C0 16.4603 4.48607 20.9365 10 20.9365C10.0317 20.9365 10.0631 20.9342 10.0944 20.932L10.0945 20.932C10.1213 20.93 10.1481 20.9281 10.175 20.9276C10.1902 20.9281 10.2053 20.93 10.2204 20.932C10.2378 20.9343 10.2552 20.9365 10.2729 20.9365C10.3623 20.9365 10.4503 20.9253 10.5382 20.914C10.561 20.9111 10.5837 20.9082 10.6064 20.9055C15.8379 20.5905 20 16.2561 20 10.9577C20 5.6593 15.8379 1.32529 10.6064 1.00989C10.5793 1.00683 10.5522 1.00341 10.5251 0.99999ZM7.00617 2.75938C5.99331 3.92619 5.17045 5.60156 4.71867 7.58022C3.31367 7.42804 2.46581 7.25092 2.12402 7.16895C3.11692 5.12304 4.86741 3.542 7.00617 2.75938ZM1.65096 8.33105C1.38846 9.16001 1.24561 10.0424 1.24561 10.9576C1.24708 12.0328 1.44885 13.0983 1.84061 14.0999C2.24096 14.0033 3.13311 13.8183 4.58132 13.6615C4.42775 12.803 4.33739 11.8995 4.33739 10.9576C4.33817 10.2381 4.38913 9.5196 4.48989 8.80718C2.80168 8.62008 1.88953 8.3952 1.65096 8.33105ZM2.38499 15.2518C2.83785 15.1556 3.64928 15.0099 4.84856 14.8848C5.32035 16.6268 6.08785 18.099 7.00713 19.1568C5.05128 18.4427 3.41303 17.0588 2.38428 15.2518H2.38499ZM5.98828 14.7785C6.63507 17.2782 8.21292 19.1325 9.28435 19.5801V14.6477C8.21292 14.6605 6.91828 14.7097 5.98828 14.7785ZM9.2846 13.4052C8.21318 13.4187 6.75496 13.4736 5.76068 13.5506C5.62389 12.7273 5.58496 11.8563 5.58496 10.9579C5.58496 10.2594 5.59853 9.57939 5.68318 8.92257C6.69282 9.0024 8.21318 9.05978 9.2846 9.07403V13.4048V13.4052ZM5.854 7.69091C6.81186 7.76397 8.21257 7.81814 9.284 7.83133V7.83097V2.33621C8.21257 2.81662 6.45222 4.91288 5.854 7.69091ZM17.8435 7.10074C17.6482 7.16061 16.8567 7.38086 15.2914 7.56582C14.9382 5.69123 14.3007 4.09391 13.4692 2.94064C15.3753 3.76496 16.9253 5.24895 17.8435 7.10038V7.10074ZM14.1368 7.68891C13.55 4.87631 11.7843 2.76115 10.7129 2.31745V7.83146C11.7843 7.81827 13.1943 7.76375 14.1368 7.68891ZM10.7129 9.07406C11.7843 9.06016 13.2861 9.00135 14.2832 8.91867C14.3654 9.57656 14.3861 10.2576 14.3861 10.9579C14.3861 11.8574 14.354 12.7299 14.2211 13.5542C13.2393 13.4751 11.7843 13.418 10.7129 13.4052V9.07406ZM10.7129 14.6477V19.5986V19.599C11.7843 19.1849 13.3707 17.3146 14.0065 14.7814C13.0886 14.7108 11.7843 14.6605 10.7129 14.6477ZM13.4692 18.9757C14.2185 17.9365 14.8153 16.5416 15.1835 14.9033C16.415 15.0448 17.1907 15.2094 17.5817 15.3078C16.6401 16.9385 15.1984 18.2242 13.4692 18.9757ZM15.4803 8.79411C15.6682 10.4179 15.643 12.0593 15.4053 13.6766L15.4056 13.6762C16.9256 13.8544 17.7903 14.069 18.1342 14.1691C18.5306 13.1741 18.7556 12.0925 18.7556 10.9581C18.7551 9.83681 18.5368 8.72626 18.1128 7.68789L18.3138 8.25454C18.2574 8.2745 17.4053 8.56353 15.4803 8.79411Z" fill="white"/>
</g>
</svg>
