<svg width="146" height="24" viewBox="0 0 146 24" fill="none" xmlns="http://www.w3.org/2000/svg">
    <path d="M67.712 9.66297C65.5599 9.66297 64.0333 11.3469 64.0333 13.9318V23.4138H60.7481V6.72395H63.994V8.76198C64.3944 8.0865 64.9681 7.53039 65.6557 7.15129C66.3434 6.77219 67.1199 6.5839 67.9048 6.60592H69.0851V9.66297H67.712ZM58.4779 15.0689C58.4779 10.0918 54.9369 6.36985 50.1448 6.36985C49.0126 6.37754 47.893 6.60903 46.8505 7.05101C45.8081 7.49299 44.8633 8.13673 44.0705 8.9452C43.2778 9.75367 42.6527 10.7109 42.2313 11.7618C41.8099 12.8128 41.6004 13.9367 41.615 15.0689C41.615 20.042 45.451 23.8033 50.4556 23.8033C51.8536 23.8297 53.2374 23.5197 54.4905 22.8993C55.7435 22.2789 56.8291 21.3664 57.6556 20.2387L55.2714 18.4918C54.7244 19.2553 54.0006 19.8749 53.1619 20.2976C52.3233 20.7204 51.3947 20.9337 50.4556 20.9194C49.1182 20.9131 47.8272 20.4278 46.8167 19.5516C45.8062 18.6753 45.1431 17.4661 44.9474 16.143H58.4858L58.4779 15.0689ZM45.0183 13.5384C45.6045 10.9928 47.6386 9.26953 50.1055 9.26953C52.5724 9.26953 54.6025 10.9928 55.1533 13.5384H45.0183ZM31.2084 6.36985C30.1105 6.37078 29.0237 6.58926 28.0107 7.01268C26.9978 7.4361 26.0787 8.05606 25.3068 8.83674V0.491821H22.0215V23.4138H25.2674V21.2971C26.8399 22.8878 28.9796 23.7892 31.2163 23.8033C32.3766 23.8279 33.5301 23.6207 34.6092 23.1937C35.6884 22.7667 36.6714 22.1286 37.5007 21.3168C38.33 20.5049 38.9889 19.5356 39.4387 18.4658C39.8885 17.396 40.1202 16.2471 40.1202 15.0866C40.1202 13.926 39.8885 12.7772 39.4387 11.7073C38.9889 10.6375 38.33 9.66826 37.5007 8.8564C36.6714 8.04453 35.6884 7.4064 34.6092 6.97942C33.5301 6.55244 32.3766 6.3452 31.2163 6.36985H31.2084ZM30.9724 20.8682C29.8272 20.8737 28.7063 20.5388 27.7518 19.9062C26.7973 19.2736 26.0523 18.3717 25.6112 17.3149C25.1701 16.2582 25.0528 15.0942 25.2743 13.9707C25.4958 12.8472 26.046 11.8148 26.8552 11.0046C27.6644 10.1943 28.696 9.64264 29.8192 9.41961C30.9424 9.19659 32.1065 9.31224 33.1639 9.75189C34.2212 10.1915 35.1241 10.9354 35.7581 11.889C36.392 12.8426 36.7284 13.9631 36.7245 15.1082C36.7255 15.8635 36.5774 16.6116 36.2886 17.3095C35.9998 18.0074 35.576 18.6414 35.0416 19.1751C34.5071 19.7088 33.8725 20.1318 33.1742 20.4196C32.4759 20.7074 31.7277 20.8545 30.9724 20.8525V20.8682ZM9.92318 20.7108C13.0943 20.7108 15.5573 18.2794 15.5573 14.6361V0.491821H18.9606V23.4138H15.5966V21.2459C14.8107 22.0582 13.8682 22.7026 12.826 23.1401C11.7839 23.5777 10.6639 23.7992 9.53367 23.7915C4.64318 23.7915 0.87793 20.2269 0.87793 14.821V0.491821H4.34416V14.6558C4.34416 18.3187 6.70482 20.7108 9.92318 20.7108Z" fill="#262626"/>
    <path d="M77.2568 0.491821H93.3368V4.42625H81.6004V10.0131H93.0103V13.8138H81.6004V19.4951H93.3368V23.4295H77.2568V0.491821ZM137.745 23.8426C142.675 23.8426 145.452 21.482 145.452 18.24C145.452 15.9305 143.808 14.2072 140.365 13.4597L136.726 12.7161C134.613 12.3226 133.948 11.9292 133.948 11.1423C133.948 10.1233 134.967 9.49772 136.844 9.49772C138.878 9.49772 140.385 10.0446 140.778 11.9253H145.043C144.811 8.38428 142.265 6.04723 137.103 6.04723C132.642 6.04723 129.51 7.88854 129.51 11.4571C129.51 13.924 131.233 15.5292 134.951 16.3121L139.019 17.2525C140.625 17.5672 141.054 18 141.054 18.6649C141.054 19.7233 139.842 20.3882 137.882 20.3882C135.419 20.3882 134.011 19.8413 133.464 17.9607H129.176C129.801 21.4938 132.421 23.8426 137.745 23.8426ZM127.936 23.4138H123.321C120.425 23.4138 118.82 21.6118 118.82 19.3377V10.3279H115.574V6.48789H118.836V1.66822H123.124V6.48789H127.936V10.3279H123.124V18.24C123.124 19.141 123.75 19.5738 124.73 19.5738H127.936V23.4138ZM109.444 6.49576V8.02231C107.934 6.74593 106.02 6.04859 104.042 6.0551C102.859 6.0302 101.682 6.24184 100.581 6.67761C99.4803 7.11338 98.4775 7.76451 97.6316 8.59284C96.7857 9.42117 96.1136 10.41 95.6548 11.5015C95.1959 12.5929 94.9596 13.7649 94.9596 14.9489C94.9596 16.1328 95.1959 17.3049 95.6548 18.3963C96.1136 19.4877 96.7857 20.4766 97.6316 21.3049C98.4775 22.1332 99.4803 22.7844 100.581 23.2201C101.682 23.6559 102.859 23.8675 104.042 23.8426C106.02 23.8512 107.935 23.1536 109.444 21.8754V23.4059H113.721V6.48789L109.444 6.49576ZM104.397 20.1285C103.371 20.1402 102.364 19.8467 101.506 19.2852C100.647 18.7237 99.9748 17.9195 99.5743 16.975C99.1738 16.0305 99.0631 14.9882 99.2563 13.9806C99.4496 12.9731 99.938 12.0457 100.66 11.3163C101.381 10.587 102.303 10.0887 103.309 9.88467C104.314 9.68065 105.358 9.78017 106.306 10.1706C107.255 10.561 108.066 11.2246 108.637 12.0772C109.208 12.9298 109.512 13.9328 109.511 14.9587C109.517 15.635 109.39 16.3058 109.135 16.9324C108.88 17.5589 108.504 18.1287 108.027 18.6087C107.551 19.0888 106.984 19.4696 106.359 19.7291C105.735 19.9887 105.065 20.1217 104.389 20.1207L104.397 20.1285Z" fill="#5FB709"/>
</svg>
