<svg width="59" height="20" viewBox="0 0 59 20" fill="none" xmlns="http://www.w3.org/2000/svg">
<path d="M57.2386 7.85443C55.3955 7.85443 54.0881 9.29661 54.0881 11.5104V19.631H51.2745V5.33738H54.0544V7.08281C54.3973 6.50431 54.8887 6.02804 55.4776 5.70336C56.0665 5.37869 56.7315 5.21743 57.4038 5.23629H58.4146V7.85443H57.2386ZM49.3303 12.4842C49.3303 8.22172 46.2977 5.03412 42.1936 5.03412C41.2239 5.0407 40.2651 5.23896 39.3723 5.61748C38.4795 5.996 37.6703 6.54732 36.9914 7.23972C36.3125 7.93211 35.7771 8.75192 35.4162 9.65197C35.0553 10.552 34.8759 11.5146 34.8884 12.4842C34.8884 16.7433 38.1737 19.9646 42.4598 19.9646C43.657 19.9872 44.8422 19.7217 45.9153 19.1904C46.9885 18.6591 47.9182 17.8776 48.6261 16.9118L46.5841 15.4157C46.1156 16.0696 45.4958 16.6002 44.7775 16.9623C44.0593 17.3243 43.264 17.507 42.4598 17.4947C41.3143 17.4893 40.2087 17.0738 39.3433 16.3233C38.4779 15.5729 37.9099 14.5372 37.7424 13.4041H49.337L49.3303 12.4842ZM37.8031 11.1734C38.3051 8.99335 40.0472 7.51748 42.1599 7.51748C44.2726 7.51748 46.0113 8.99335 46.483 11.1734H37.8031ZM25.9759 5.03412C25.0356 5.03491 24.1048 5.22202 23.2373 5.58465C22.3698 5.94728 21.5827 6.47823 20.9216 7.14683V0H18.108V19.631H20.8879V17.8182C22.2346 19.1806 24.0671 19.9526 25.9826 19.9646C26.9763 19.9857 27.9643 19.8082 28.8885 19.4426C29.8127 19.0769 30.6546 18.5304 31.3648 17.8351C32.075 17.1398 32.6393 16.3097 33.0245 15.3934C33.4098 14.4772 33.6082 13.4933 33.6082 12.4994C33.6082 11.5054 33.4098 10.5215 33.0245 9.6053C32.6393 8.68907 32.075 7.85897 31.3648 7.16366C30.6546 6.46836 29.8127 5.92185 28.8885 5.55617C27.9643 5.19049 26.9763 5.013 25.9826 5.03412H25.9759ZM25.7737 17.4509C24.793 17.4556 23.833 17.1688 23.0156 16.627C22.1981 16.0852 21.56 15.3128 21.1823 14.4078C20.8045 13.5027 20.7041 12.5059 20.8938 11.5437C21.0835 10.5815 21.5547 9.69735 22.2477 9.00341C22.9407 8.30947 23.8242 7.83702 24.7861 7.64602C25.7481 7.45501 26.7451 7.55406 27.6506 7.93059C28.5562 8.30712 29.3294 8.94416 29.8724 9.76088C30.4153 10.5776 30.7034 11.5372 30.7 12.5179C30.7009 13.1648 30.5741 13.8054 30.3267 14.4031C30.0794 15.0009 29.7164 15.5438 29.2587 16.0009C28.801 16.458 28.2575 16.8202 27.6595 17.0667C27.0614 17.3132 26.4206 17.4392 25.7737 17.4375V17.4509ZM7.74661 17.3161C10.4625 17.3161 12.5718 15.2338 12.5718 12.1136V0H15.4865V19.631H12.6055V17.7744C11.9324 18.4701 11.1252 19.0219 10.2327 19.3966C9.34021 19.7714 8.38097 19.9612 7.41302 19.9545C3.22467 19.9545 0 16.9017 0 12.2719V0H2.96858V12.1304C2.96858 15.2675 4.99031 17.3161 7.74661 17.3161Z" fill="white"/>
</svg>
