<svg width="16" height="16" viewBox="0 0 16 16" fill="none" xmlns="http://www.w3.org/2000/svg">
<g id="search">
<path id="Shape" fill-rule="evenodd" clip-rule="evenodd" d="M6.03636 0C9.30909 0 12 2.61818 12 5.96364C12 7.49091 11.4182 8.87273 10.5455 9.81818L16 15.2727L15.3455 15.9273L9.89091 10.4727C8.8 11.3455 7.41818 11.9273 5.96364 11.9273C2.69091 11.9273 0 9.30909 0 5.96364C0 2.69091 2.69091 0 6.03636 0ZM0.872727 5.96364C0.872727 8.8 3.2 11.0545 5.96364 11.0545C8.8 11.0545 11.0545 8.8 11.0545 5.96364C11.0545 3.12727 8.8 0.872727 5.96364 0.872727C3.12727 0.872727 0.872727 3.2 0.872727 5.96364Z" fill="#262626"/>
</g>
</svg>
