<svg width="69" height="24" viewBox="0 0 69 24" fill="none" xmlns="http://www.w3.org/2000/svg">
<path d="M0.378906 0H16.4589V3.93443H4.7225V9.52131H16.1323V13.322H4.7225V19.0033H16.4589V22.9377H0.378906V0ZM60.8668 23.3508C65.7966 23.3508 68.5743 20.9902 68.5743 17.7482C68.5743 15.4387 66.9297 13.7154 63.4871 12.9679L59.8478 12.2243C57.735 11.8308 57.0701 11.4374 57.0701 10.6505C57.0701 9.63148 58.0891 9.0059 59.9658 9.0059C61.9999 9.0059 63.5068 9.55279 63.9002 11.4334H68.1651C67.933 7.89246 65.3874 5.55541 60.2255 5.55541C55.7638 5.55541 52.632 7.39672 52.632 10.9652C52.632 13.4321 54.3553 15.0374 58.0733 15.8203L62.1415 16.7607C63.7468 17.0754 64.1756 17.5082 64.1756 18.1731C64.1756 19.2315 62.9638 19.8964 61.0045 19.8964C58.5415 19.8964 57.133 19.3495 56.5861 17.4689H52.2976C52.9232 21.002 55.5435 23.3508 60.8668 23.3508ZM51.0583 22.922H46.4432C43.5474 22.922 41.9422 21.12 41.9422 18.8459V9.83607H38.6963V5.99606H41.9579V1.17639H46.2464V5.99606H51.0583V9.83607H46.2464V17.7482C46.2464 18.6492 46.872 19.082 47.8517 19.082H51.0583V22.922ZM32.5664 6.00394V7.53049C31.0565 6.25411 29.1416 5.55677 27.1645 5.56328C25.9808 5.53838 24.804 5.75002 23.7032 6.18579C22.6024 6.62156 21.5996 7.27269 20.7537 8.10102C19.9077 8.92935 19.2357 9.91821 18.7768 11.0096C18.318 12.1011 18.0817 13.2731 18.0817 14.4571C18.0817 15.641 18.318 16.813 18.7768 17.9045C19.2357 18.9959 19.9077 19.9848 20.7537 20.8131C21.5996 21.6414 22.6024 22.2925 23.7032 22.7283C24.804 23.1641 25.9808 23.3757 27.1645 23.3508C29.142 23.3594 31.0576 22.6618 32.5664 21.3836V22.9141H36.8432V5.99606L32.5664 6.00394ZM27.5186 19.6367C26.4927 19.6484 25.4865 19.3549 24.6279 18.7933C23.7692 18.2318 23.0969 17.4277 22.6964 16.4832C22.2958 15.5387 22.1852 14.4964 22.3784 13.4888C22.5716 12.4812 23.0601 11.5539 23.7816 10.8245C24.5032 10.0952 25.4253 9.59686 26.4307 9.39285C27.4362 9.18883 28.4796 9.28834 29.4283 9.67875C30.3771 10.0691 31.1884 10.7328 31.759 11.5854C32.3297 12.438 32.634 13.4409 32.6333 14.4669C32.6396 15.1432 32.5116 15.814 32.2569 16.4405C32.0021 17.0671 31.6257 17.6369 31.1493 18.1169C30.6729 18.597 30.106 18.9778 29.4814 19.2373C28.8569 19.4968 28.187 19.6299 27.5107 19.6289L27.5186 19.6367Z" fill="#5FB709"/>
</svg>
