<svg width="20" height="21" viewBox="0 0 20 21" fill="none" xmlns="http://www.w3.org/2000/svg">
<path fill-rule="evenodd" clip-rule="evenodd" d="M10.5251 1.00011L10.5251 1.00011C10.4415 0.989566 10.3578 0.979004 10.2729 0.979004C10.2552 0.979004 10.2378 0.98136 10.2205 0.98371C10.2054 0.985744 10.1904 0.987774 10.1754 0.98827C10.1481 0.987773 10.1211 0.985738 10.094 0.983702C10.0628 0.981354 10.0316 0.979004 10 0.979004C4.48607 0.979004 0 5.45593 0 10.9578C0 16.4604 4.48607 20.9366 10 20.9366C10.0317 20.9366 10.0631 20.9344 10.0944 20.9321L10.0945 20.9321C10.1213 20.9301 10.1481 20.9282 10.175 20.9277C10.1902 20.9282 10.2053 20.9302 10.2204 20.9321C10.2378 20.9344 10.2552 20.9366 10.2729 20.9366C10.3623 20.9366 10.4503 20.9254 10.5382 20.9141C10.561 20.9112 10.5837 20.9083 10.6064 20.9056C15.8379 20.5906 20 16.2562 20 10.9578C20 5.65942 15.8379 1.32541 10.6064 1.01001C10.5793 1.00695 10.5522 1.00353 10.5251 1.00011ZM7.00617 2.75951C5.99331 3.92632 5.17045 5.60169 4.71867 7.58034C3.31367 7.42817 2.46581 7.25104 2.12402 7.16907C3.11692 5.12316 4.86741 3.54212 7.00617 2.75951ZM1.65096 8.33117C1.38846 9.16013 1.24561 10.0425 1.24561 10.9577C1.24708 12.0329 1.44885 13.0984 1.84061 14.1C2.24096 14.0034 3.13311 13.8185 4.58132 13.6616C4.42775 12.8031 4.33739 11.8997 4.33739 10.9577C4.33817 10.2383 4.38913 9.51972 4.48989 8.80731C2.80168 8.6202 1.88953 8.39532 1.65096 8.33117ZM2.38499 15.252C2.83785 15.1557 3.64928 15.01 4.84856 14.8849C5.32035 16.6269 6.08785 18.0991 7.00713 19.1569C5.05128 18.4428 3.41303 17.059 2.38428 15.252H2.38499ZM5.98828 14.7786C6.63507 17.2783 8.21292 19.1326 9.28435 19.5802V14.6478C8.21292 14.6607 6.91828 14.7099 5.98828 14.7786ZM9.2846 13.4053C8.21318 13.4189 6.75496 13.4737 5.76068 13.5507C5.62389 12.7275 5.58496 11.8565 5.58496 10.958C5.58496 10.2595 5.59853 9.57951 5.68318 8.92269C6.69282 9.00252 8.21318 9.0599 9.2846 9.07416V13.405V13.4053ZM5.854 7.69104C6.81186 7.7641 8.21257 7.81827 9.284 7.83145V7.8311V2.33633C8.21257 2.81674 6.45222 4.91301 5.854 7.69104ZM17.8435 7.10086C17.6482 7.16073 16.8567 7.38098 15.2914 7.56594C14.9382 5.69135 14.3007 4.09403 13.4692 2.94076C15.3753 3.76508 16.9253 5.24908 17.8435 7.1005V7.10086ZM14.1368 7.68903C13.55 4.87643 11.7843 2.76127 10.7129 2.31757V7.83158C11.7843 7.8184 13.1943 7.76387 14.1368 7.68903ZM10.7129 9.07418C11.7843 9.06028 13.2861 9.00147 14.2832 8.91879C14.3654 9.57668 14.3861 10.2577 14.3861 10.958C14.3861 11.8576 14.354 12.73 14.2211 13.5543C13.2393 13.4752 11.7843 13.4182 10.7129 13.4053V9.07418ZM10.7129 14.6478V19.5988V19.5991C11.7843 19.185 13.3707 17.3147 14.0065 14.7815C13.0886 14.7109 11.7843 14.6607 10.7129 14.6478ZM13.4692 18.9758C14.2185 17.9366 14.8153 16.5417 15.1835 14.9034C16.415 15.0449 17.1907 15.2095 17.5817 15.3079C16.6401 16.9386 15.1984 18.2244 13.4692 18.9758ZM15.4803 8.79423C15.6682 10.4181 15.643 12.0594 15.4053 13.6767L15.4056 13.6764C16.9256 13.8546 17.7903 14.0691 18.1342 14.1692C18.5306 13.1742 18.7556 12.0926 18.7556 10.9582C18.7551 9.83693 18.5368 8.72638 18.1128 7.68801L18.3138 8.25466C18.2574 8.27462 17.4053 8.56365 15.4803 8.79423Z" fill="white"/>
</svg>
