<svg width="22" height="22" viewBox="0 0 22 22" fill="none" xmlns="http://www.w3.org/2000/svg">
<path d="M11 0C8.82441 0 6.69767 0.645139 4.88873 1.85383C3.07979 3.06253 1.66989 4.78049 0.83733 6.79048C0.00476614 8.80047 -0.21307 11.0122 0.211367 13.146C0.635804 15.2798 1.68345 17.2398 3.22183 18.7782C4.76021 20.3165 6.72022 21.3642 8.85401 21.7886C10.9878 22.2131 13.1995 21.9952 15.2095 21.1627C17.2195 20.3301 18.9375 18.9202 20.1462 17.1113C21.3549 15.3023 22 13.1756 22 11C22 8.08262 20.8411 5.28472 18.7782 3.22182C16.7153 1.15892 13.9174 0 11 0V0ZM11 20.1667C9.18701 20.1667 7.41473 19.629 5.90728 18.6218C4.39983 17.6146 3.22491 16.1829 2.53111 14.5079C1.83731 12.8329 1.65577 10.9898 2.00947 9.21167C2.36317 7.43351 3.23621 5.80017 4.51819 4.51819C5.80017 3.23621 7.43352 2.36317 9.21167 2.00947C10.9898 1.65577 12.8329 1.8373 14.5079 2.5311C16.1829 3.22491 17.6146 4.39982 18.6218 5.90727C19.629 7.41472 20.1667 9.187 20.1667 11C20.164 13.4303 19.1974 15.7604 17.4789 17.4789C15.7604 19.1974 13.4303 20.164 11 20.1667Z" fill="black"/>
<path d="M11.9163 3.66663H10.083V10.0833V11V11.9166H15.583V10.0833H11.9163V3.66663Z" fill="black"/>
</svg>
