<svg width="20" height="16" viewBox="0 0 20 16" fill="none" xmlns="http://www.w3.org/2000/svg">
<path d="M19.3333 1.89305C18.6218 2.21429 17.8582 2.43216 17.056 2.52942C17.8751 2.02968 18.5022 1.23702 18.7993 0.295398C18.031 0.758193 17.1829 1.09424 16.2792 1.27641C15.5556 0.489895 14.5262 0 13.3846 0C11.1943 0 9.41835 1.80937 9.41835 4.03969C9.41835 4.35601 9.45338 4.66496 9.52105 4.96039C6.22534 4.79174 3.30294 3.18301 1.34702 0.738495C1.00511 1.33425 0.810611 2.02842 0.810611 2.76943C0.810611 4.1714 1.51132 5.40841 2.57446 6.13213C1.92449 6.10999 1.31318 5.92782 0.77801 5.62502V5.67549C0.77801 7.63256 2.14559 9.2659 3.95895 9.63764C3.62671 9.72873 3.27637 9.7792 2.91394 9.7792C2.65783 9.7792 2.41016 9.75335 2.16733 9.70411C2.6723 11.3104 4.13655 12.4785 5.8714 12.5105C4.51469 13.5937 2.804 14.2374 0.945945 14.2374C0.625807 14.2374 0.310471 14.2177 0 14.182C1.75539 15.3304 3.83938 16 6.07921 16C13.375 16 17.3629 9.84321 17.3629 4.50374L17.3496 3.98063C18.1289 3.41439 18.803 2.70297 19.3333 1.89305Z" fill="white"/>
</svg>
