<svg width="87" height="14" viewBox="0 0 87 14" fill="none" xmlns="http://www.w3.org/2000/svg">
<path d="M40.0671 5.4981C38.7768 5.4981 37.8617 6.50763 37.8617 8.05728V13.7417H35.8922V3.73616H37.8381V4.95796C38.0781 4.55301 38.4221 4.21963 38.8343 3.99235C39.2466 3.76508 39.7121 3.6522 40.1826 3.6654H40.8902V5.4981H40.0671ZM34.5312 8.73895C34.5312 5.7552 32.4084 3.52388 29.5355 3.52388C28.8567 3.52849 28.1855 3.66727 27.5606 3.93224C26.9356 4.1972 26.3692 4.58313 25.894 5.0678C25.4187 5.55248 25.044 6.12634 24.7914 6.75638C24.5387 7.38642 24.4131 8.0602 24.4219 8.73895C24.4219 11.7203 26.7216 13.9752 29.7218 13.9752C30.5599 13.9911 31.3895 13.8052 32.1407 13.4333C32.8919 13.0614 33.5427 12.5143 34.0382 11.8383L32.6089 10.791C32.2809 11.2487 31.847 11.6201 31.3443 11.8736C30.8415 12.127 30.2848 12.2549 29.7218 12.2463C28.92 12.2425 28.1461 11.9516 27.5403 11.4263C26.9345 10.901 26.537 10.1761 26.4197 9.38287H34.5359L34.5312 8.73895ZM26.4621 7.82141C26.8136 6.29534 28.033 5.26224 29.5119 5.26224C30.9908 5.26224 32.2079 6.29534 32.5381 7.82141H26.4621ZM18.1831 3.52388C17.5249 3.52444 16.8734 3.65542 16.2661 3.90926C15.6588 4.1631 15.1079 4.53476 14.6451 5.00278V0H12.6756V13.7417H14.6215V12.4727C15.5642 13.4264 16.8469 13.9668 18.1879 13.9752C18.8834 13.99 19.575 13.8658 20.2219 13.6098C20.8689 13.3538 21.4582 12.9713 21.9554 12.4846C22.4525 11.9978 22.8475 11.4168 23.1172 10.7754C23.3868 10.134 23.5257 9.4453 23.5257 8.74956C23.5257 8.05381 23.3868 7.36507 23.1172 6.72371C22.8475 6.08235 22.4525 5.50128 21.9554 5.01457C21.4582 4.52785 20.8689 4.14529 20.2219 3.88932C19.575 3.63334 18.8834 3.5091 18.1879 3.52388H18.1831ZM18.0416 12.2157C17.3551 12.2189 16.6831 12.0182 16.1109 11.6389C15.5387 11.2597 15.092 10.719 14.8276 10.0854C14.5631 9.45192 14.4929 8.75413 14.6256 8.08059C14.7584 7.40706 15.0883 6.78815 15.5734 6.30239C16.0585 5.81663 16.6769 5.48592 17.3503 5.35221C18.0236 5.21851 18.7215 5.28784 19.3554 5.55141C19.9893 5.81498 20.5306 6.26091 20.9107 6.83262C21.2907 7.40432 21.4923 8.07604 21.49 8.76253C21.4906 9.21533 21.4018 9.6638 21.2287 10.0822C21.0556 10.5006 20.8015 10.8807 20.4811 11.2006C20.1607 11.5206 19.7803 11.7741 19.3616 11.9467C18.943 12.1193 18.4944 12.2075 18.0416 12.2062V12.2157ZM5.42263 12.1213C7.32373 12.1213 8.80027 10.6636 8.80027 8.47949V0H10.8405V13.7417H8.82386V12.4421C8.35269 12.929 7.78764 13.3153 7.1629 13.5777C6.53815 13.84 5.86668 13.9728 5.18912 13.9682C2.25727 13.9682 0 11.8312 0 8.59035V0H2.07801V8.49128C2.07801 10.6872 3.49322 12.1213 5.42263 12.1213Z" fill="#262626"/>
<path d="M45.7893 0H55.4293V2.35869H48.3933V5.70803H55.2335V7.98652H48.3933V11.3925H55.4293V13.7512H45.7893V0ZM82.0518 13.9988C85.0072 13.9988 86.6725 12.5836 86.6725 10.64C86.6725 9.2555 85.6865 8.22239 83.6227 7.77424L81.4409 7.32845C80.1743 7.09258 79.7757 6.85671 79.7757 6.38497C79.7757 5.77407 80.3866 5.39904 81.5117 5.39904C82.7311 5.39904 83.6345 5.7269 83.8703 6.85435H86.4272C86.288 4.73153 84.7619 3.33047 81.6673 3.33047C78.9926 3.33047 77.1151 4.43434 77.1151 6.57367C77.1151 8.05257 78.1482 9.01491 80.3771 9.48429L82.816 10.048C83.7784 10.2367 84.0354 10.4962 84.0354 10.8948C84.0354 11.5293 83.309 11.9279 82.1343 11.9279C80.6578 11.9279 79.8134 11.6 79.4855 10.4726H76.9146C77.2896 12.5907 78.8605 13.9988 82.0518 13.9988ZM76.1716 13.7417H73.4048C71.6688 13.7417 70.7065 12.6614 70.7065 11.2981V5.89672H68.7606V3.59464H70.7159V0.705248H73.2869V3.59464H76.1716V5.89672H73.2869V10.64C73.2869 11.1802 73.6619 11.4396 74.2493 11.4396H76.1716V13.7417ZM65.0857 3.59936V4.51453C64.1805 3.74934 63.0325 3.33128 61.8473 3.33519C61.1376 3.32026 60.4322 3.44714 59.7722 3.70838C59.1123 3.96963 58.5111 4.35998 58.004 4.85656C57.4968 5.35315 57.0939 5.94597 56.8189 6.60028C56.5438 7.25459 56.4021 7.95723 56.4021 8.667C56.4021 9.37678 56.5438 10.0794 56.8189 10.7337C57.0939 11.388 57.4968 11.9809 58.004 12.4774C58.5111 12.974 59.1123 13.3644 59.7722 13.6256C60.4322 13.8869 61.1376 14.0137 61.8473 13.9988C63.0328 14.004 64.1812 13.5858 65.0857 12.8195V13.737H67.6496V3.59464L65.0857 3.59936ZM62.0595 11.7722C61.4445 11.7792 60.8413 11.6032 60.3266 11.2666C59.8118 10.93 59.4088 10.4479 59.1686 9.88168C58.9285 9.31544 58.8622 8.69059 58.978 8.08655C59.0938 7.4825 59.3867 6.92654 59.8192 6.48931C60.2518 6.05207 60.8046 5.75332 61.4074 5.63101C62.0101 5.5087 62.6357 5.56836 63.2044 5.80241C63.7732 6.03646 64.2596 6.43432 64.6017 6.94544C64.9438 7.45656 65.1263 8.05785 65.1258 8.6729C65.1296 9.07834 65.0529 9.48051 64.9002 9.85611C64.7474 10.2317 64.5218 10.5733 64.2362 10.8611C63.9505 11.1489 63.6107 11.3772 63.2363 11.5328C62.8618 11.6884 62.4603 11.7681 62.0548 11.7675L62.0595 11.7722Z" fill="#5FB709"/>
</svg>
